<?xml version="1.0" standalone="no"?><!DOCTYPE svg PUBLIC "-//W3C//DTD SVG 1.1//EN" "http://www.w3.org/Graphics/SVG/1.1/DTD/svg11.dtd"><svg t="1731817948147" class="icon" viewBox="0 0 1024 1024" version="1.1" xmlns="http://www.w3.org/2000/svg" p-id="13224" xmlns:xlink="http://www.w3.org/1999/xlink" width="200" height="200"><path d="M470.2 174.7h-96.7l-34 58h98.1zM512.3 174.7l-31 58h61.3zM478.1 258.1l33.8 95.6 33.9-95.6zM686.1 232.7l-36.7-58h-94.3l32.2 58zM521.7 403.6c-0.3 0.6 0.4 1.3 1 0.8l156.1-146.3H578.5l-56.8 145.5zM441.6 258.1h-97.3l163.9 146.2c0.6 0.5 1.4-0.2 1-0.8l-67.6-145.4z" fill="#F7C4C6" p-id="13225"></path><path d="M801.3 526.4c-17.9-35.9-44.3-67.9-78.4-95-22.7-19.1-47.6-34.9-74.3-47.1l134.5-117.1c7.7-6.7 9.1-18.2 3.2-26.6l-87.4-124c-3.7-5.3-9.8-8.5-16.3-8.5H341.3c-6.5 0-12.6 3.2-16.3 8.5l-87.5 124c-5.9 8.4-4.5 19.9 3.2 26.6l134.7 117.5c-28.5 12.9-54.7 29.6-78.3 50-32.9 26.9-58.4 58.4-75.6 93.8C203.2 565.9 194 607.7 194 653c0 90 29.8 165.2 86.1 217.6 55.9 52 136.1 79.5 231.9 79.5 95.8 0 175.9-27.5 231.9-79.5C800.2 818.2 830 743 830 653c-0.1-46.1-9.7-88.7-28.7-126.6zM280.5 248.8L351.7 148h320.7l71 100.8-231.7 201.7-85.2-74.4-146-127.3zM709 834.1c-52.6 48.9-122.6 75.8-197.1 75.8S367.4 883 314.8 834.1c-52.2-48.5-80.9-112.9-80.9-181.3 0-35.9 8.1-70.8 24-103.7 15.4-31.7 37.2-60 65-84 24.2-19.7 53.2-36.7 86.6-50.8l89.1 77.8c3.8 3.3 8.5 4.9 13.2 4.9 4.7 0 9.4-1.6 13.1-4.9l89.8-78.2c31.8 13.6 59.6 29.8 82.9 48.4 58.7 49.7 92.3 119.1 92.3 190.5 0 68.4-28.7 132.8-80.9 181.3z" fill="#45B8AD" p-id="13226"></path></svg>