<?xml version="1.0" standalone="no"?><!DOCTYPE svg PUBLIC "-//W3C//DTD SVG 1.1//EN" "http://www.w3.org/Graphics/SVG/1.1/DTD/svg11.dtd"><svg t="1731817811126" class="icon" viewBox="0 0 1024 1024" version="1.1" xmlns="http://www.w3.org/2000/svg" p-id="8818" xmlns:xlink="http://www.w3.org/1999/xlink" width="200" height="200"><path d="M994.858544 138.615692c19.932802-19.967508 19.932802-52.42917 0-72.396678l-29.592634-29.592634c-11.366209-11.366209-26.998362-16.606812-42.989143-14.556268-15.956075 2.134418-29.679399 11.383562-37.664667 25.344044l-3.719325 6.501587c-30.804451-21.127267-64.373812-36.999469-100.43622-46.607242L755.317856 0.60157c-5.136485-1.417161-10.596893-0.289217-14.796317 2.952901s-6.654872 8.225318-6.654872 13.532441v74.785607l-8.500074-4.248591-48.894944-32.597593-50.005536-50.005536a17.072451 17.072451 0 0 0-26.263752 2.594272l-29.06626 43.605174h-118.26931l-29.06626-43.605174a17.063775 17.063775 0 0 0-12.508614-7.508061c-5.136485-0.442501-10.137039 1.29569-13.755138 4.913789l-50.005536 50.005536-48.894944 32.597593-8.500074 4.248591V17.086912a17.075343 17.075343 0 0 0-6.672225-13.532441A16.965441 16.965441 0 0 0 268.667683 0.60157l-25.121346 6.706931c-36.062408 9.607773-69.631769 25.479975-100.43622 46.624595L139.390793 47.431509c-7.970807-13.977834-21.708592-23.226978-37.664667-25.361397-15.938722-2.065006-31.622934 3.190058-42.989144 14.556268L29.141456 66.221906c-19.932802 19.967508-19.932802 52.42917 0 72.396678l17.543874 17.543874C16.239507 207.07035 0.011569 264.838457 0.011569 324.281127c0 7.730757 5.205897 14.5071 12.661899 16.485342l174.724374 46.589889 0.341276 154.41559c0 18.585053 8.636005 35.463729 23.704185 46.335378 10.001107 7.218844 21.673886 10.565079 33.534656 10.495668 3.311529 37.528735 11.296797 80.058024 18.755691 118.541174 6.570999 33.945343 12.800723 66.01367 13.77249 85.793187 1.006473 20.548834-8.260024 40.258939-13.977834 50.378625h-7.525414a17.063775 17.063775 0 0 0-17.066667 17.066667v136.530441a17.063775 17.063775 0 0 0 17.066667 17.066667h119.463775c4.523346 0 8.873163-1.793142 12.066113-5.000554l12.066113-12.04876h224.79643l12.066113 12.066113a17.023284 17.023284 0 0 0 12.066113 5.000554h119.463775a17.063775 17.063775 0 0 0 17.066666-17.066667v-136.530441a17.063775 17.063775 0 0 0-17.066666-17.066667h-7.30561c-6.605705-12.184692-15.565633-32.88681-14.761611-50.448037 0.905248-19.779518 7.048207-51.301226 13.549794-84.64789 7.476247-38.329865 15.478868-80.775281 18.825103-119.362549 0.341275 0 0.665198 0.086765 1.006474 0.086765 11.759544 0 23.29639-3.701971 33.228085-10.854296 15.085534-10.871649 23.721539-27.750325 23.721539-46.488662l-1.347749-153.819805 176.413399-47.052635a17.023284 17.023284 0 0 0 12.661899-16.467989c0-59.442671-16.230831-117.193425-46.676654-168.104208z m-68.061323-82.718816a17.0175 17.0175 0 0 1 14.336463 4.847269l29.592634 29.592634a17.081127 17.081127 0 0 1 0 24.132226l-144.961103 144.961103a51.327255 51.327255 0 0 0-15.30823-13.483274l103.779562-181.58459a16.968333 16.968333 0 0 1 12.560674-8.465368z m-141.736339 217.184251c9.402429 0 17.066667 7.646885 17.066667 17.066667s-7.664238 17.066667-17.066667 17.066667-17.066667-7.646885-17.066666-17.066667 7.664238-17.066667 17.066666-17.066667z m-13.396509-232.816404c33.176027 8.858702 64.015184 23.637666 92.225363 43.382478l-89.37658 156.414077c-2.252997 0.477207-4.387415 1.281229-6.51894 2.0303V39.307417zM367.874733 82.484551a15.299554 15.299554 0 0 0 2.594272-2.134418l36.487556-36.487556 22.579134 33.875931a17.069559 17.069559 0 0 0 14.20053 7.612178h136.530442a17.086912 17.086912 0 0 0 14.200531-7.594825l22.579133-33.875931 36.487556 36.487556c0.783777 0.80113 1.671671 1.518387 2.594272 2.134418l31.776219 21.179325-62.427385 49.936124h-226.948201L336.098514 103.663876zM238.939118 273.081127c9.402429 0 17.066667 7.646885 17.066666 17.066667s-7.661346 17.066667-17.066666 17.066667-17.066667-7.646885-17.066667-17.066667 7.664238-17.066667 17.066667-17.066667z m13.396509-232.816404l3.670157-0.954414v202.798622c-2.134418-0.769316-4.265944-1.553093-6.51894-2.0303L160.110264 83.664554c28.192826-19.765057 59.049336-34.544021 92.225363-43.399831zM53.273682 90.354132l29.592634-29.592634c3.788736-3.788736 8.942575-5.547173 14.336463-4.847269a16.99147 16.99147 0 0 1 12.560674 8.448015l103.779562 181.601943a51.327255 51.327255 0 0 0-15.30823 13.483274L53.291035 114.483466a17.092696 17.092696 0 0 1-0.017353-24.129334z m18.261131 90.654917l117.005434 117.005434c3.806089 24.473502 24.849483 43.330419 50.395978 43.330419 6.007027 0 11.707485-1.22917 17.066667-3.140891v32.134847l-221.571666-59.101395c2.015839-45.800328 14.729797-90.223985 37.103587-130.228414z m150.337638 360.731085l-0.323923-145.285025 47.119155 12.560674a16.164311 16.164311 0 0 0 4.401876 0.598678 17.066667 17.066667 0 0 0 17.066666-17.063775V212.958798l136.530442 54.612755v164.622041l-159.945411 63.963125 12.679252 31.692346 170.663775-68.266667a17.05799 17.05799 0 0 0 10.735717-15.837496V256.014461a17.104265 17.104265 0 0 0-10.718364-15.85485l-159.945411-63.963125V130.031746l14.932249-7.458894 76.815907 61.455618a17.092696 17.092696 0 0 0 10.648952 3.719324h102.397108v294.905406L252.110038 563.581766c-7.100265 2.423634-14.643032 1.194464-20.702118-3.158245a22.781585 22.781585 0 0 1-9.535469-18.683387z m146.531548 448.126533H273.072451v-102.397108h95.331548l34.133334 34.133333h-44.134441v34.133333h44.134441z m65.331119-17.066667l22.067221-22.06722a17.049314 17.049314 0 0 0 0-24.132226l-22.067221-22.067221h156.532656l-22.06722 22.067221a17.049314 17.049314 0 0 0 0 24.132226l22.06722 22.06722z m317.192431 17.066667H655.596001l-34.133334-34.133334h44.134441v-34.133333h-44.134441l34.133334-34.133333h95.331548z m-102.397108-136.530442c-4.523346 0-8.873163 1.793142-12.066113 5.000554l-12.066113 12.066113h-224.79643l-12.066113-12.066113a17.023284 17.023284 0 0 0-12.066113-5.000554h-74.085703c5.905801-14.148472 11.195571-32.45877 10.223804-52.087894-1.093238-22.203152-7.236197-53.895498-14.353816-90.588398-7.594826-39.287172-16.077546-83.181562-18.908976-119.857109l233.655132-77.874439 232.749884 77.599684c-2.816969 38.058001-11.108806 81.833813-18.773044 121.170152-7.048207 36.128927-13.124646 67.30936-14.148472 89.61663-0.853189 18.602406 4.881975 37.427509 11.042287 52.018482h-74.340214z m153.597108-311.561385c0 7.476247-3.482167 14.267051-9.541253 18.654466-6.041733 4.387415-13.601853 5.52982-20.702118 3.175597l-242.820403-80.945919V187.750686h102.397107c3.875501 0 7.629532-1.313043 10.666305-3.736677l76.815907-61.455618 14.914896 7.476247v46.147388l-159.94541 63.980478a17.104265 17.104265 0 0 0-10.718364 15.854849v187.730441a17.104265 17.104265 0 0 0 10.718364 15.85485l170.663774 68.266666 12.679252-31.692346-159.928057-63.980478v-164.622041l136.530441-54.612755v179.588996a17.075343 17.075343 0 0 0 17.066667 17.063775c1.466328 0 2.952901-0.187991 4.401875-0.581325l45.534249-12.135525z m187.438332-230.531593l-221.571665 59.084042v-32.134847c5.359182 1.929074 11.05964 3.158244 17.066666 3.158244 25.549387 0 46.589889-18.856917 50.395978-43.330418l117.005435-116.990974c22.394035 39.984183 35.09064 84.40784 37.103586 130.213953z" p-id="8819"></path><path d="M607.811648 638.882178l104.838095 26.214585 8.277377-33.092154-104.820743-26.231938c-68.096029-17.031961-140.096481-17.031961-208.192509 0l-104.838096 26.214585 8.277377 33.092154 104.838095-26.214585c62.667435-15.649506 128.952968-15.6148 191.620404 0.017353zM407.896515 691.103112l-87.771429 21.948642 8.277377 33.092154 87.771428-21.948642c62.667435-15.649506 128.952968-15.649506 191.637757 0l87.771428 21.948642 8.277377-33.092154-87.754076-21.948642c-68.113382-17.031961-140.099373-17.031961-208.209862 0z" p-id="8820"></path></svg>