<?xml version="1.0" standalone="no"?><!DOCTYPE svg PUBLIC "-//W3C//DTD SVG 1.1//EN" "http://www.w3.org/Graphics/SVG/1.1/DTD/svg11.dtd"><svg t="1731817857367" class="icon" viewBox="0 0 1144 1024" version="1.1" xmlns="http://www.w3.org/2000/svg" p-id="9871" xmlns:xlink="http://www.w3.org/1999/xlink" width="223.4375" height="200"><path d="M1089.071861 569.810571l12.43055-125.059603-143.839221 134.157501c-0.024326-21.33384-1.775793-42.254139-5.059793-62.639268l140.482243-126.470508L1082.50386 125.010951l-213.289749 206.308208c-71.83447-87.767953-181.009241-143.790569-303.271362-143.790569-119.002447 0-225.622996 53.079178-297.457466 136.857679L62.323031 125.010951l-10.606105 264.787742 129.292315 116.399573c-3.746193 19.801307-5.984179 40.113458-6.616653 60.814823l-131.068108-122.262121 12.43055 125.059603L183.952678 666.530467c5.035467 22.185248 11.968357 43.640717 20.604063 64.220454l-148.826037-94.919777 19.144507 72.393966 177.871196 106.377289c71.493907 94.992754 185.168975 156.415726 313.196342 156.415727 121.289084 0 229.709752-55.122556 301.568547-141.698539l202.464711-121.094477 19.144506-72.393966-166.827224 106.401615c9.316831-20.360803 16.955173-41.645991 22.720418-63.709609l144.058154-108.712579z m-523.153438 335.697827c-180.182159 0-326.23504-146.05288-326.23504-326.23504 0-180.182159 146.05288-326.23504 326.23504-326.23504s326.23504 146.05288 326.235039 326.23504c0 180.182159-146.05288 326.23504-326.235039 326.23504z" fill="#545454" p-id="9872"></path><path d="M565.918423 291.011094c-159.213208 0-288.28659 129.073382-288.28659 288.28659s129.073382 288.28659 288.28659 288.28659 288.28659-129.073382 288.286589-288.28659c0-159.237534-129.073382-288.28659-288.286589-288.28659z m4.208385 114.526476c14.254995 0 25.834137 11.554816 25.834137 25.834137s-11.554816 25.834137-25.834137 25.834137c-14.254995 0-25.834137-11.554816-25.834137-25.834137s11.579142-25.834137 25.834137-25.834137z m-176.922484 130.289678c-14.254995 0-25.834137-11.554816-25.834138-25.834137 0-14.254995 11.554816-25.834137 25.834138-25.834137 14.254995 0 25.834137 11.554816 25.834137 25.834137 0 14.279321-11.554816 25.834137-25.834137 25.834137z m290.184012 217.206224H457.327474v-27.780212h226.036536v27.780212z m0.754104-46.000333h-223.239055l-41.840598-158.702363 70.618173 45.976006 81.662145-108.712578 80.178263 108.712578 65.55838-43.421784-32.937308 156.148141z m54.490082-171.205891c-14.254995 0-25.834137-11.554816-25.834137-25.834137 0-14.254995 11.554816-25.834137 25.834137-25.834137 14.254995 0 25.834137 11.554816 25.834137 25.834137 0 14.279321-11.554816 25.834137-25.834137 25.834137z" fill="#545454" p-id="9873"></path></svg>